<svg width="1900" height="1642" fill="none" xmlns="http://www.w3.org/2000/svg"><path d="M-154.198 470.399c46.233 0 90.609 10.295 135.964 18.678 117.042 21.634 236.891 43.249 356.2 45.177 84.191 1.361 182.614-6.788 261.502-39.095 65.716-26.912 101.779-77.964 130.969-140.308 17.032-36.378 36.404-77.513 41.484-118.154 2.522-20.174-24.149-20.087-38.661-20.416-76.664-1.743-111.823 93.531-124.235 157.249-15.028 77.14-23.937 146.348-66.027 215.023-59.822 97.603-140.592 206.709-240.652 265.412-153.869 90.269-336.032 124.403-509.105 156.385-78.673 14.53-169.086 32.99-250.209 21.06-19.873-2.92-6.032-22.1 3.476-29.54 34.419-26.913 78.681-46.064 118.588-62.33 95.928-39.101 197.451-65.951 300.163-79.494 101.624-13.399 204.572-14.993 306.897-15.203 67.382-.139 137.346-1.747 204.38 8.253 120.351 17.953 239.636 51.55 358.589 76.887 124.594 26.538 250.045 50.3 375.965 69.72 45 6.937 90.04 12.677 135.53 15.417 49.79 3 107.74 9.51 156.81-3.47 50.22-13.283 74.87-51.584 90.79-97.739 12.32-35.707 31.43-81.617 17.16-119.675-29.9-79.741-154.34-109.181-226.54-117.068-168.32-18.388-321.63 46.724-454.801 143.783C792.803 920.97 673.607 1044.14 543.432 1152.82c-165.988 138.58-343.247 259.12-544.073 341-129.195 52.68-262.5 97.3-397.25 133.58-13.057 3.51-35.602 16.33-40.398 3.69-9.644-25.43 77.714-90.8 88.181-99.04 165.272-130.23 373.556-181.04 580.345-191.57 284.509-14.48 563.133 26.34 842.283 73.85 195.48 33.26 390.94 57.34 589.47 50.17 75.73-2.74 152.47-6.16 227.62-16.72 67.81-9.54 124.44-34.8 184.61-66.03 41.22-21.39 80.98-44.54 125.54-58.21 23.4-7.18 29.19-13.4 24.98-42.14-49.9-340.627-374.17-647.815-719.79-662.657-58.76-2.524-105.63 21.458-157.03 48-242.51 125.232-437.158 326.007-663.746 476.087-186.498 123.53-385.535 232.05-594.245 313.2-85.35 33.18-172.64 63.73-261.72 85.36-59.898 14.54-127.204 26.73-189.176 19.33-83.083-9.93-120.725-86.19-109.684-164.42 10.773-76.34 50.986-147.81 92.308-211.33 79.35-121.97 177.966-241.838 287.132-338.39 80.615-71.301 170.228-124.865 273.013-157.466 121.877-38.656 250.77-48.98 377.268-61.032 270.77-25.798 542.57-39.197 812.31 6.95 146.98 25.146 289.76 77.15 430.7 124.67 49.4 16.657 98.48 34.694 148.34 49.955 30.91 9.459 76.7 28.648 110.34 22.588 49.63-8.943 52.59-99.082 50.82-132.054-4.65-86.732-23.62-173.784-46.92-257.159-22.4-80.196-49.09-176.624-103.6-242.389-65.93-79.56-185.22-107.963-282.13-121.847-117.57-16.842-235.21-12.714-352.73 4.561-232.57 34.189-461.451 101.177-668.524 213.72-150.691 81.9-293.408 182.835-427.873 288.869-105.339 83.066-201.235 176.825-306.245 260.2-93.325 74.096-690.061 569.964-738.68 246.084-18.922-126.058 63.016-274.186 145.738-362.066 106.063-112.677 245.204-149.799 395.512-148.562 221.002 1.82 443.997 58.324 652.67 126.842 157.383 51.677 306.178 126.525 444.815 216.761 204.997 133.425 254.947 389.065 400.507 571.655 40.43 50.71 93.26 87.3 154.86 108.38 111.57 38.19 244.32 48.68 358.15 15.86 112.68-32.49 195.87-97.2 278.88-176.8 51.4-49.28 104.83-93.86 98.39-171.58-8.77-105.91-62.19-240.03-151.82-302.556-81.62-56.935-189.98-84.724-285.83-103.168-185.52-35.701-377.42-32.651-564.27-9.991-331.025 40.146-662.482 123.73-970.424 251.945-271.919 113.22-531.791 262.55-814.264 349.47-121.964 37.53-252.986 70.13-381.172 75.36-79.96 3.27-149.83-11.58-191.35-86-67.42-120.85-36.14-278.07-1.96-403.12 42.55-155.663 123.95-348.046 195.48-489.555C-839.649 136.57-957.664 418.303-724.986 1.258" stroke="#B4E4FF" stroke-linecap="round"/></svg>