<svg width="147" height="33" fill="none" xmlns="http://www.w3.org/2000/svg"><path d="M31.308 18.272h-8.712v1.804h4.928v7.964c-1.32.85-2.67 1.481-4.048 1.892-1.379.41-2.948.616-4.708.616-2.317 0-4.341-.352-6.072-1.056-1.73-.704-3.168-1.672-4.312-2.904-1.144-1.261-2.01-2.743-2.596-4.444-.557-1.73-.836-3.623-.836-5.676 0-2.024.264-3.887.792-5.588.557-1.701 1.379-3.168 2.464-4.4a11.081 11.081 0 013.96-2.86c1.584-.675 3.417-1.012 5.5-1.012 1.379 0 2.67.147 3.872.44 1.203.293 2.273.675 3.212 1.144.939.47 1.701 1.012 2.288 1.628.616.587 1.012 1.188 1.188 1.804h3.168c-.264-.645-.719-1.364-1.364-2.156-.616-.821-1.467-1.584-2.552-2.288-1.085-.704-2.435-1.29-4.048-1.76C21.848.921 19.971.672 17.8.672c-2.493 0-4.796.352-6.908 1.056-2.083.704-3.887 1.716-5.412 3.036S2.767 7.712 1.916 9.648C1.066 11.555.64 13.725.64 16.16c0 2.083.323 4.107.968 6.072a15.903 15.903 0 003.036 5.236c1.379 1.525 3.124 2.757 5.236 3.696 2.112.91 4.635 1.364 7.568 1.364 2.2 0 4.15-.235 5.852-.704 1.701-.499 3.11-1.041 4.224-1.628V32h3.784V18.272z" fill="#38322E"/><path d="M39.245 32V1.2h4.004v28.38h15.884V32H39.245zM67.474 1.2V32h4.004V1.2h-4.004zm41.145 0v23.54h-.176L84.023.672h-.22V32h2.024V8.46h.176l24.42 24.068h.22V1.2h-2.024zm29.683 21.736L142.526 32h4.268L132.45 1.2h-2.2L117.226 32h2.024l3.872-9.064h15.18zm-.924-1.98h-13.42l6.336-14.828h.176l6.908 14.828z" fill="#fff"/></svg>