<svg width="1900" height="1642" viewBox="0 0 1900 1642" fill="none" xmlns="http://www.w3.org/2000/svg">
<path d="M-154.198 470.399C-107.965 470.399 -63.589 480.694 -18.234 489.077C98.8085 510.711 218.657 532.326 337.966 534.254C422.157 535.615 520.58 527.466 599.468 495.159C665.184 468.247 701.247 417.195 730.437 354.851C747.469 318.473 766.841 277.338 771.921 236.697C774.443 216.523 747.772 216.61 733.26 216.281C656.596 214.538 621.437 309.812 609.025 373.53C593.997 450.67 585.088 519.878 542.998 588.553C483.176 686.156 402.406 795.262 302.346 853.965C148.477 944.234 -33.6856 978.368 -206.759 1010.35C-285.432 1024.88 -375.845 1043.34 -456.968 1031.41C-476.841 1028.49 -463 1009.31 -453.492 1001.87C-419.073 974.957 -374.811 955.806 -334.904 939.54C-238.976 900.439 -137.453 873.589 -34.7407 860.046C66.8833 846.647 169.831 845.053 272.156 844.843C339.538 844.704 409.502 843.096 476.536 853.096C596.887 871.049 716.172 904.646 835.125 929.983C959.719 956.521 1085.17 980.283 1211.09 999.703C1256.09 1006.64 1301.13 1012.38 1346.62 1015.12C1396.41 1018.12 1454.36 1024.63 1503.43 1011.65C1553.65 998.367 1578.3 960.066 1594.22 913.911C1606.54 878.204 1625.65 832.294 1611.38 794.236C1581.48 714.495 1457.04 685.055 1384.84 677.168C1216.52 658.78 1063.21 723.892 930.039 820.951C792.803 920.97 673.607 1044.14 543.432 1152.82C377.444 1291.4 200.185 1411.94 -0.641235 1493.82C-129.836 1546.5 -263.141 1591.12 -397.891 1627.4C-410.948 1630.91 -433.493 1643.73 -438.289 1631.09C-447.933 1605.66 -360.575 1540.29 -350.108 1532.05C-184.836 1401.82 23.4477 1351.01 230.237 1340.48C514.746 1326 793.37 1366.82 1072.52 1414.33C1268 1447.59 1463.46 1471.67 1661.99 1464.5C1737.72 1461.76 1814.46 1458.34 1889.61 1447.78C1957.42 1438.24 2014.05 1412.98 2074.22 1381.75C2115.44 1360.36 2155.2 1337.21 2199.76 1323.54C2223.16 1316.36 2228.95 1310.14 2224.74 1281.4C2174.84 940.773 1850.57 633.585 1504.95 618.743C1446.19 616.219 1399.32 640.201 1347.92 666.743C1105.41 791.975 910.762 992.75 684.174 1142.83C497.676 1266.36 298.639 1374.88 89.9291 1456.03C4.57938 1489.21 -82.7116 1519.76 -171.791 1541.39C-231.689 1555.93 -298.995 1568.12 -360.967 1560.72C-444.05 1550.79 -481.692 1474.53 -470.651 1396.3C-459.878 1319.96 -419.665 1248.49 -378.343 1184.97C-298.993 1063 -200.377 943.132 -91.2114 846.58C-10.5958 775.279 79.0169 721.715 181.802 689.114C303.679 650.458 432.572 640.134 559.07 628.082C829.84 602.284 1101.64 588.885 1371.38 635.032C1518.36 660.178 1661.14 712.182 1802.08 759.702C1851.48 776.359 1900.56 794.396 1950.42 809.657C1981.33 819.116 2027.12 838.305 2060.76 832.245C2110.39 823.302 2113.35 733.163 2111.58 700.191C2106.93 613.459 2087.96 526.407 2064.66 443.032C2042.26 362.836 2015.57 266.408 1961.06 200.643C1895.13 121.083 1775.84 92.6803 1678.93 78.7963C1561.36 61.9545 1443.72 66.0816 1326.2 83.3574C1093.63 117.546 864.749 184.534 657.676 297.077C506.985 378.977 364.268 479.912 229.803 585.946C124.464 669.012 28.5681 762.771 -76.4421 846.146C-169.767 920.242 -766.503 1416.11 -815.122 1092.23C-834.044 966.172 -752.106 818.044 -669.384 730.164C-563.321 617.487 -424.18 580.365 -273.872 581.602C-52.8705 583.422 170.125 639.926 378.798 708.444C536.181 760.121 684.976 834.969 823.613 925.205C1028.61 1058.63 1078.56 1314.27 1224.12 1496.86C1264.55 1547.57 1317.38 1584.16 1378.98 1605.24C1490.55 1643.43 1623.3 1653.92 1737.13 1621.1C1849.81 1588.61 1933 1523.9 2016.01 1444.3C2067.41 1395.02 2120.84 1350.44 2114.4 1272.72C2105.63 1166.81 2052.21 1032.69 1962.58 970.164C1880.96 913.229 1772.6 885.44 1676.75 866.996C1491.23 831.295 1299.33 834.345 1112.48 857.005C781.455 897.151 449.998 980.735 142.056 1108.95C-129.863 1222.17 -389.735 1371.5 -672.208 1458.42C-794.172 1495.95 -925.194 1528.55 -1053.38 1533.78C-1133.34 1537.05 -1203.21 1522.2 -1244.73 1447.78C-1312.15 1326.93 -1280.87 1169.71 -1246.69 1044.66C-1204.14 888.997 -1122.74 696.614 -1051.21 555.105C-839.649 136.57 -957.664 418.303 -724.986 1.25775" stroke="#B4E4FF" stroke-linecap="round"/>
</svg>
