<svg width="147" height="33" viewBox="0 0 147 33" fill="none" xmlns="http://www.w3.org/2000/svg">
<path d="M31.308 18.272H22.596V20.076H27.524V28.04C26.204 28.8907 24.8547 29.5213 23.476 29.932C22.0973 30.3427 20.528 30.548 18.768 30.548C16.4507 30.548 14.4267 30.196 12.696 29.492C10.9653 28.788 9.528 27.82 8.384 26.588C7.24 25.3267 6.37467 23.8453 5.788 22.144C5.23067 20.4133 4.952 18.5213 4.952 16.468C4.952 14.444 5.216 12.5813 5.744 10.88C6.30133 9.17867 7.12267 7.712 8.208 6.48C9.29333 5.248 10.6133 4.29466 12.168 3.62C13.752 2.94533 15.5853 2.608 17.668 2.608C19.0467 2.608 20.3373 2.75466 21.54 3.048C22.7427 3.34133 23.8133 3.72267 24.752 4.192C25.6907 4.66133 26.4533 5.204 27.04 5.82C27.656 6.40666 28.052 7.008 28.228 7.624H31.396C31.132 6.97867 30.6773 6.26 30.032 5.468C29.416 4.64666 28.5653 3.884 27.48 3.18C26.3947 2.476 25.0453 1.88933 23.432 1.42C21.848 0.921332 19.9707 0.671999 17.8 0.671999C15.3067 0.671999 13.004 1.024 10.892 1.728C8.80933 2.432 7.00533 3.444 5.48 4.764C3.95467 6.084 2.76667 7.712 1.916 9.648C1.06533 11.5547 0.64 13.7253 0.64 16.16C0.64 18.2427 0.962667 20.2667 1.608 22.232C2.28267 24.168 3.29467 25.9133 4.644 27.468C6.02267 28.9933 7.768 30.2253 9.88 31.164C11.992 32.0733 14.5147 32.528 17.448 32.528C19.648 32.528 21.5987 32.2933 23.3 31.824C25.0013 31.3253 26.4093 30.7827 27.524 30.196V32H31.308V18.272Z" fill="#38322E"/>
<path d="M39.2448 32V1.2H43.2488V29.58H59.1328V32H39.2448ZM67.4736 1.2V32H71.4776V1.2H67.4736ZM108.619 1.2V24.74H108.443L84.0234 0.671999H83.8034V32H85.8274V8.46H86.0034L110.423 32.528H110.643V1.2H108.619ZM138.302 22.936L142.526 32H146.794L132.45 1.2H130.25L117.226 32H119.25L123.122 22.936H138.302ZM137.378 20.956H123.958L130.294 6.128H130.47L137.378 20.956Z" fill="white"/>
</svg>
